# xmcd
#
# Track frame offsets:
#	150
#	10605
#	23225
#	36862
#	56656
#	74626
#	86327
#	98045
#	112089
#	127935
#	142024
#	157318
#	169419
#	182246
#
# Disc length: 2605 seconds
#
# Revision: 1
# Processed by: cddbd v1.5.2PL0 Copyright (c) Steve Scherf et al.
# Submitted via: audiograbber 1.83.01
#
DISCID=c50a2b0e
DTITLE=Patty Loveless - Sleepless Nights
DYEAR=2008
DGENRE=Country
TTITLE0=Why Baby Why
TTITLE1=Pain Of Loving You
TTITLE2=He Thinks I Still Care
TTITLE3=Sleepless Nights
TTITLE4=Crazy Arms
TTITLE5=There Stands The Glass
TTITLE6=That's All It Took
TTITLE7=Color Of The Blues
TTITLE8=I Forgot More Than You'll Ever
TTITLE9=Next In Line
TTITLE10=Don't Let Me Cross Over
TTITLE11=Please Help Me, I'm Falling
TTITLE12=There Goes My Everything
TTITLE13=Cold Cold Heart
EXTD=
EXTT0=
EXTT1=
EXTT2=
EXTT3=
EXTT4=
EXTT5=
EXTT6=
EXTT7=
EXTT8=
EXTT9=
EXTT10=
EXTT11=
EXTT12=
EXTT13=
PLAYORDER=
